# xmcd CD database file
#
# Track frame offsets:
#	150
#	22798
#	48238
#	106203
#	156160
#	189955
#	245993
#
# Disc length: 3895 seconds
#
# Revision: 1
# Processed by: cddbd v1.5.2PL0 Copyright (c) Steve Scherf et al.
# Submitted via: CDex 1.51
#
DISCID=4e0f3507
DTITLE=Albert Mangelsdorff - Movin' on mit Albert Mangelsdorff in der Fabrik Konstanz
DYEAR=1900
DGENRE=Jazz
TTITLE0=Abfallsinfonie
TTITLE1=Mouthpieces
TTITLE2=Impressionen in a,e,g - Stück für Geräusche aus der Fabrik
TTITLE3=Josef is back in town
TTITLE4=Saxobonia
TTITLE5=FVM 990, Stück für Briefsortiermaschine und Jazzband
TTITLE6=Do you like Pastrami?
EXTD=
EXTT0=
EXTT1=
EXTT2=
EXTT3=
EXTT4=
EXTT5=
EXTT6=
PLAYORDER=
